<?xml version="1.0" encoding="UTF-8"?>
<svg width="493px" height="379px" viewBox="0 0 493 379" version="1.1" xmlns="http://www.w3.org/2000/svg" xmlns:xlink="http://www.w3.org/1999/xlink">
    <title>􁛾</title>
    <g id="Template---App-Icons" stroke="none" stroke-width="1" fill="none" fill-rule="evenodd">
        <g id="3---Layer" transform="translate(-271, -323)" fill="color(display-p3 0.000 0.000 0.000)">
            <g id="􁛾" transform="translate(150, 151)">
                <path d="M367.489742,396.835938 C333.117346,396.835938 301.004716,393.958333 271.151851,388.203125 C241.298987,382.447917 215.181799,374.360677 192.800289,363.941406 C170.418779,353.522135 152.931148,341.434245 140.337398,327.677734 C127.743648,313.921224 121.446773,299.040365 121.446773,283.035156 C121.446773,267.529948 127.743648,253.065104 140.337398,239.640625 C152.931148,226.216146 170.418779,214.457031 192.800289,204.363281 C215.181799,194.269531 241.298987,186.391276 271.151851,180.728516 C301.004716,175.065755 333.117346,172.234375 367.489742,172.234375 C402.0262,172.234375 434.183753,175.065755 463.962398,180.728516 C493.741044,186.391276 519.862138,194.269531 542.32568,204.363281 C564.789221,214.457031 582.317867,226.216146 594.911617,239.640625 C607.505367,253.065104 613.802242,267.529948 613.802242,283.035156 C613.802242,299.040365 607.505367,313.921224 594.911617,327.677734 C582.317867,341.434245 564.789221,353.522135 542.32568,363.941406 C519.862138,374.360677 493.741044,382.447917 463.962398,388.203125 C434.183753,393.958333 402.0262,396.835938 367.489742,396.835938 Z M367.489742,550.265625 C332.784013,550.265625 300.541825,546.630208 270.76318,539.359375 C240.984534,532.088542 214.909013,522.056641 192.536617,509.263672 C170.164221,496.470703 152.722815,481.667318 140.212398,464.853516 C127.701982,448.039714 121.446773,430.023438 121.446773,410.804688 L121.446773,355.03125 C137.355628,370.820312 157.933101,384.299479 183.179195,395.46875 C208.425289,406.638021 236.778805,415.179688 268.239742,421.09375 C299.70068,427.007812 332.784013,429.964844 367.489742,429.964844 C402.341305,429.964844 435.539872,426.970052 467.085445,420.980469 C498.631018,414.990885 527.030758,406.449219 552.284664,395.355469 C577.53857,384.261719 598.04443,370.820312 613.802242,355.03125 L613.802242,410.804688 C613.802242,430.023438 607.547034,448.039714 595.036617,464.853516 C582.5262,481.667318 565.080888,496.470703 542.70068,509.263672 C520.320471,522.056641 494.199378,532.088542 464.337398,539.359375 C434.475419,546.630208 402.192867,550.265625 367.489742,550.265625 Z" id="Shape" fill-rule="nonzero"></path>
            </g>
        </g>
    </g>
</svg>